<svg width="24" height="24" viewBox="0 0 24 24" fill="none" xmlns="http://www.w3.org/2000/svg">
<path fill-rule="evenodd" clip-rule="evenodd" d="M18.0952 4H5.90476C4.85279 4 4 4.85279 4 5.90476V15.0476C4 16.0996 4.85279 16.9524 5.90476 16.9524H7.80952V19.2381C7.81081 19.5453 7.99643 19.8216 8.28029 19.939C8.56415 20.0564 8.89073 19.9918 9.10857 19.7752L11.9314 16.9524H18.0952C19.1472 16.9524 20 16.0996 20 15.0476V5.90476C20 4.85279 19.1472 4 18.0952 4ZM13.5238 12.9524H8.57143C8.15064 12.9524 7.80952 12.6113 7.80952 12.1905C7.80952 11.7697 8.15064 11.4286 8.57143 11.4286H13.5238C13.9446 11.4286 14.2857 11.7697 14.2857 12.1905C14.2857 12.6113 13.9446 12.9524 13.5238 12.9524ZM15.4286 9.52381H8.57143C8.15064 9.52381 7.80952 9.18269 7.80952 8.7619C7.80952 8.34112 8.15064 8 8.57143 8H15.4286C15.8494 8 16.1905 8.34112 16.1905 8.7619C16.1905 9.18269 15.8494 9.52381 15.4286 9.52381Z" fill="white"/>
</svg>
