<svg width="437" height="169" viewBox="0 0 437 169" fill="none" xmlns="http://www.w3.org/2000/svg">
<g clip-path="url(#clip0_0_1)">
<path fill-rule="evenodd" clip-rule="evenodd" d="M349.471 9.59857C349.778 9.03535 350.214 8.85625 350.688 8.80519C350.445 9.73971 349.728 10.4308 349.471 9.59857Z" fill="url(#paint0_linear_0_1)"/>
<path fill-rule="evenodd" clip-rule="evenodd" d="M351.552 117.352C351.962 116.853 353.153 115.867 352.783 117.736C352.155 117.967 351.962 117.48 351.552 117.352Z" fill="url(#paint1_linear_0_1)"/>
<path fill-rule="evenodd" clip-rule="evenodd" d="M353.039 119.696C353.243 118.813 353.961 119.53 354.384 119.3C354.206 120.439 353.206 120.234 353.039 119.696Z" fill="url(#paint2_linear_0_1)"/>
<path fill-rule="evenodd" clip-rule="evenodd" d="M360.499 102.813C360.845 102.211 361.613 101.687 361.844 102.404C361.627 103.287 360.909 102.57 360.499 102.813Z" fill="url(#paint3_linear_0_1)"/>
<path fill-rule="evenodd" clip-rule="evenodd" d="M360.494 120.054C361.082 119.005 361.876 118.634 362.876 118.864C362.351 120.08 361.326 119.773 360.494 120.054Z" fill="url(#paint4_linear_0_1)"/>
<path fill-rule="evenodd" clip-rule="evenodd" d="M378.607 34.1151C379.747 33.9619 382.269 32.2998 382.821 34.0907C381.604 33.0287 379.76 34.998 378.607 34.1151Z" fill="url(#paint5_linear_0_1)"/>
<path fill-rule="evenodd" clip-rule="evenodd" d="M376.534 71.3639C378.262 68.9859 380.442 71.3912 382.452 69.7678C382.441 71.6734 379.775 70.1759 379.046 71.7359C378.636 71.6078 378.366 71.2752 378.059 70.9553C377.546 71.1341 376.907 72.4384 376.534 71.3639Z" fill="url(#paint6_linear_0_1)"/>
<path fill-rule="evenodd" clip-rule="evenodd" d="M393.072 75.9644C393.174 74.9399 393.391 74.2869 393.853 74.4023C393.943 74.7481 393.918 75.2859 393.803 75.9646C393.559 75.9645 393.315 75.9644 393.072 75.9644Z" fill="url(#paint7_linear_0_1)"/>
<path fill-rule="evenodd" clip-rule="evenodd" d="M402.083 62.2049C403.465 60.3764 406.091 60.0957 407.334 61.4006C407.565 61.1448 407.667 60.4926 408 60.6078C408.884 60.3395 410.716 60.941 408.858 60.9917C406.387 62.3595 404.734 61.2336 402.083 62.2049Z" fill="url(#paint8_linear_0_1)"/>
<path fill-rule="evenodd" clip-rule="evenodd" d="M400.26 81.8054C400.618 81.2039 401.092 80.9736 401.656 81.0122C401.4 81.9722 400.414 82.2151 400.26 81.8054Z" fill="url(#paint9_linear_0_1)"/>
<path fill-rule="evenodd" clip-rule="evenodd" d="M409.012 30.4139C409.344 29.5182 410.19 30.2607 410.715 30.0177C410.28 30.5679 409.32 31.1947 409.012 30.4139Z" fill="url(#paint10_linear_0_1)"/>
<path fill-rule="evenodd" clip-rule="evenodd" d="M402.537 75.1311C403.125 74.1072 404.112 74.3251 404.791 73.5445C405.086 75.0679 403.267 74.9009 402.537 75.1311Z" fill="url(#paint11_linear_0_1)"/>
<path fill-rule="evenodd" clip-rule="evenodd" d="M402.641 80.6137C403.166 79.3852 404.191 79.7055 405.024 79.4242C404.409 80.4094 403.41 80.1788 402.641 80.6137Z" fill="url(#paint12_linear_0_1)"/>
<path fill-rule="evenodd" clip-rule="evenodd" d="M412.069 20.9858C412.311 19.6543 413.029 19.757 413.593 19.4115C413.312 20.6533 412.581 20.5122 412.069 20.9858Z" fill="url(#paint13_linear_0_1)"/>
<path fill-rule="evenodd" clip-rule="evenodd" d="M411.586 30.4002C412.341 29.262 414.365 29.4672 415.364 29.6082C413.943 30.58 412.97 30.5669 411.586 30.4002Z" fill="url(#paint14_linear_0_1)"/>
<path fill-rule="evenodd" clip-rule="evenodd" d="M405.382 79.4222C406.585 77.5675 407.777 78.8983 408.559 79.0137C407.535 80.1136 406.521 78.2839 405.382 79.4222Z" fill="url(#paint15_linear_0_1)"/>
<path fill-rule="evenodd" clip-rule="evenodd" d="M410.331 60.977C410.779 60.2859 411.407 60.1453 411.97 59.787C411.843 61.4895 410.959 60.8492 410.331 60.977Z" fill="url(#paint16_linear_0_1)"/>
<path fill-rule="evenodd" clip-rule="evenodd" d="M411.396 64.8969C411.971 63.8989 412.292 64.3213 412.92 64.5006C412.651 65.3835 411.87 64.6539 411.396 64.8969Z" fill="url(#paint17_linear_0_1)"/>
<path fill-rule="evenodd" clip-rule="evenodd" d="M412.345 69.5854C412.69 68.5484 414.1 68.2543 413.512 70.3668C413.089 70.5459 413.242 69.8033 413.319 69.1888C412.896 69.035 412.807 69.9056 412.345 69.5854Z" fill="url(#paint18_linear_0_1)"/>
<path fill-rule="evenodd" clip-rule="evenodd" d="M420.325 39.3685C417.955 38.6895 419.186 41.032 420.325 39.3685V39.3685Z" fill="url(#paint19_linear_0_1)"/>
<path fill-rule="evenodd" clip-rule="evenodd" d="M424.315 24.8414C425.186 23.9973 425.903 24.1766 426.762 24.4327C426.121 24.9827 424.648 25.1614 424.315 24.8414Z" fill="url(#paint20_linear_0_1)"/>
<path fill-rule="evenodd" clip-rule="evenodd" d="M425.211 22.4848C425.107 21.2813 426.594 21.269 426.133 22.4723C425.826 22.485 425.518 22.4849 425.211 22.4848Z" fill="url(#paint21_linear_0_1)"/>
<path fill-rule="evenodd" clip-rule="evenodd" d="M429.775 1.69489C430.146 0.87572 430.76 0.65829 431.171 0.901642C430.915 1.86166 429.929 2.10457 429.775 1.69489Z" fill="url(#paint22_linear_0_1)"/>
<path fill-rule="evenodd" clip-rule="evenodd" d="M434.681 3.23192C436.46 1.33817 436.756 3.15576 434.681 3.23192V3.23192Z" fill="url(#paint23_linear_0_1)"/>
<path fill-rule="evenodd" clip-rule="evenodd" d="M393.196 5.0373C393.58 4.48714 394.041 4.21854 394.348 3.4636C394.708 5.01216 395.937 3.54086 396.616 4.23211C395.439 6.01055 394.72 3.87322 393.196 5.0373Z" fill="url(#paint24_linear_0_1)"/>
<path fill-rule="evenodd" clip-rule="evenodd" d="M409.243 37.4735C409.704 37.3075 409.539 38.1901 410.102 37.8578C410.064 38.4974 409.834 38.5356 409.745 39.0345C410.629 39.2908 411.218 38.6643 411.999 38.6264C411.859 38.9461 411.718 39.2659 411.642 39.8031C412.972 37.6292 413.731 40.9044 416.049 39.78C413.655 42.1452 409.272 40.7612 407.377 41.3869C407.862 39.8265 409.26 41.1577 409.681 39.4182C409.898 38.1903 408.694 39.2641 409.243 37.4735Z" fill="url(#paint25_linear_0_1)"/>
<path fill-rule="evenodd" clip-rule="evenodd" d="M406.136 74.3249C406.353 74.2481 406.302 73.9281 406.187 73.928C406.365 73.0064 407.032 73.6979 407.109 73.9283C406.738 75.0419 404.38 74.5675 406.136 74.3249Z" fill="url(#paint26_linear_0_1)"/>
<path fill-rule="evenodd" clip-rule="evenodd" d="M420.466 69.1566C420.389 69.6809 420.313 70.2051 420.236 70.7293C421.428 70.5765 423.374 70.1043 423.965 71.4983C422.416 72.6868 419.813 70.1537 418.47 72.6977C418.291 72.3012 417.855 72.3266 417.662 71.9173C414.065 74.5753 410.886 72.157 407.287 73.9199C409.372 69.6629 412.041 75.1498 414.356 70.7521C414.613 70.9568 414.305 71.1613 414.113 71.1356C415.625 70.9957 418.188 71.7769 420.466 69.1566Z" fill="url(#paint27_linear_0_1)"/>
<path fill-rule="evenodd" clip-rule="evenodd" d="M426.055 19.3463C426.439 18.6294 426.977 18.4247 427.386 17.7718C427.54 17.8358 426.286 20.3835 426.055 19.3463Z" fill="url(#paint28_linear_0_1)"/>
<path fill-rule="evenodd" clip-rule="evenodd" d="M50.8179 27.0444C49.9979 27.0823 48.8847 28.5654 48.0136 28.6289C45.9766 28.7685 44.3611 27.3607 42.1967 28.2677C40.2885 29.0596 38.3048 31.2585 36.3579 31.8202C34.9106 32.2415 34.3731 32.8551 33.3743 33.4045C30.4419 35.0017 28.3018 34.4123 26.5633 38.5297C24.2854 41.3167 21.6606 43.0291 19.6516 45.6116C19.3317 46.0207 18.7935 45.8542 18.6783 46.0076C13.5597 52.5022 18.605 49.8189 12.9723 54.5994C12.2186 56.9267 11.4787 60.2901 10.2259 63.2183C9.67624 64.5354 8.69057 65.4173 8.23061 66.76C6.54408 71.6832 6.60109 77.8224 4.18324 81.6197C3.91535 82.8474 4.21031 83.1545 4.19826 83.9731C2.82373 93.7054 2.45985 101.865 0.967975 109.423C1.67672 113.798 0.682271 118.977 1.13457 123.121C1.40603 125.692 2.3179 128.084 2.78144 130.553C3.30936 133.367 3.99038 135.503 4.36461 138.368C3.9574 141.31 5.05965 141.784 4.95946 144.239C6.15257 145.967 6.89795 148.423 8.11662 150.086C8.11754 151.058 8.38711 151.621 8.26012 152.823C8.83774 153.987 9.1332 154.831 9.32599 155.484C9.62163 156.52 9.66032 156.789 9.98129 157.518C10.0969 157.786 11.2524 160.499 12.3926 160.397C13.1228 160.333 13.2755 159.182 13.8648 159.144C14.9153 159.081 14.3679 162.802 17.7253 163.674C19.2375 164.058 21.159 163.791 22.7601 163.408C22.8242 163.446 22.9011 163.459 22.9651 163.459C23.3238 163.434 23.4769 162.769 23.9128 163.012C24.017 164.867 25.1861 168.282 26.6464 168.091C27.146 168.027 28.3479 165.457 29.5005 164.946C31.2037 164.18 32.2702 167.48 33.7942 166.88C34.4986 166.599 35.5086 164.297 36.2767 163.735C38.274 162.278 41.8235 162.996 43.2463 163.7C44.246 164.199 44.5037 165.722 45.2468 165.709C45.3493 165.709 45.4261 165.671 45.5158 165.645C46.7709 165.173 47.4489 164.15 48.1148 163.767C48.8062 163.37 50.3947 163.141 54.1875 163.783C57.4935 164.424 59.2485 164.182 60.2603 163.799C60.9519 163.543 61.4896 163.134 63.8587 162.01C64.2813 161.805 64.6399 161.639 64.8832 161.537C67.2298 163.751 70.3136 159.647 72.8121 159.93C73.3118 159.994 73.8122 160.762 74.3502 160.698C75.2342 160.609 76.5653 159.267 77.7563 158.73C79.7925 157.798 81.4581 157.875 83.1738 156.751C85.0863 160.499 87.5033 155.883 89.5276 155.935C90.2835 155.949 90.874 157.164 91.7323 157.1C92.4626 157.05 93.3198 155.874 94.1014 155.912C94.8829 155.938 95.5374 157.141 96.3189 157.065C96.8954 157.014 97.4455 156.221 97.9068 156.272C98.509 156.349 98.7661 157.258 99.4449 157.053C100.149 156.824 101.045 155.289 101.749 155.085C104.349 154.306 106.849 155.753 109.613 152.697C113.574 154.887 117.849 150.732 122.579 153.024C123.949 152.155 124.961 151.529 126.178 152.22C126.511 151.913 126.638 150.98 127.087 151.044C129.573 152.043 132.799 148.579 135.324 149.833C135.477 149.373 135.656 148.938 135.861 148.657C139.36 150.296 144.087 150.26 147.339 147.819C149.365 149.636 152.335 147.233 155.154 146.992C156.486 146.877 157.64 147.875 158.946 147.364C161.495 146.368 164.545 147.201 166.953 146.537C167.67 146.346 168.502 145.182 169.206 144.965C170.487 144.557 171.654 145.606 173.05 144.942C178.428 142.412 184.054 143.579 188.512 143.3C189.883 143.211 191.239 141.869 192.84 141.32C195.491 140.413 197.851 142.346 200.489 141.669C201.155 141.503 201.885 140.685 202.499 140.481C204.088 139.97 205.446 140.636 207.086 140.458C211.07 140.038 215.347 137.623 218.82 139.223C223.93 136.361 230.759 136.761 236.344 135.997C237.879 133.785 238.816 135.55 240.122 135.193C244.196 134.108 249.574 131.374 253.496 132.77C271.427 127.919 289.351 128.44 307.155 123.104C308.284 124.639 310.512 123.476 311.856 122.287C311.972 123.285 312.766 123.183 313.33 123.452C315.839 120.716 318.275 122.649 321.08 121.845C322.115 119.262 323.501 121.079 324.793 119.084C325.037 120.453 324.038 120.324 324.679 121.041C327.071 116.323 332.748 118.103 335.591 116.685C335.411 116.685 335.462 115.994 335.705 115.905C336.193 117.018 336.819 114.703 337.536 114.729C342.468 113.913 346.55 109.145 350.93 107.229C351.366 107.843 352.483 109.724 353.199 107.997C352.481 107.767 351.52 107.958 351.839 106.053C353.005 106.603 354.759 105.645 355.796 104.072C357.358 103.805 358.013 104.764 359.587 103.269C359.92 103.281 359.534 101.299 360.239 101.312C362.264 102.183 363.569 100.444 365.376 101.289C366.182 99.4478 368.526 98.7712 369.09 99.7052C369.832 98.887 368.602 98.2341 369.204 97.7484C371.035 97.0715 372.764 96.2155 374.213 97.3289C374.724 96.4595 375.146 95.2831 375.85 94.9765C376.311 94.8232 375.48 96.7541 376.223 96.1405C376.991 95.0794 375.991 94.3754 376.322 93.0071C377.283 92.3169 377.243 91.3705 377.832 90.2581C378.909 91.2562 380.047 89.0058 381.238 88.2902C382.48 87.5363 383.659 88.1252 384.837 87.4863C385.849 86.9369 386.437 85.5559 387.513 85.5181C388.384 85.4802 388.923 86.849 389.91 86.6705C390.46 86.3126 389.767 85.2379 390.51 85.1104C393.969 84.4344 397.427 83.7456 400.269 81.1507C396.006 84.4482 393.646 81.3646 389.908 84.3299C389.637 82.6031 388.243 85.5185 388.062 83.1651C387.691 84.1881 388.383 84.8535 387.64 84.738C387.409 84.61 387.371 84.1751 386.961 84.3412C387.728 82.2185 387.01 82.2564 386.932 80.8239C384.05 81.1166 381.668 82.228 379.182 82.4314C378.658 82.9555 379.337 83.6081 378.761 83.9915C377.775 84.4003 377.083 84.1441 375.892 84.7958C375.775 83.2609 375.121 82.5443 375.798 80.4855C379.129 80.4233 384.097 77.075 388.119 76.5016C389.336 76.336 390.375 77.8329 391.411 75.3139C389.516 76.1826 388.45 73.5345 386.938 73.3802C384.977 73.1874 382.482 75.7824 380.598 75.3721C380.06 75.2567 379.931 74.5532 379.431 74.6041C379.034 74.6295 378.215 75.8313 377.792 75.7927C377.331 75.7413 377.407 74.8972 376.997 75.0121C376.139 75.2419 375.308 76.5716 374.385 76.5839C372.835 76.5958 371.514 75.2266 369.734 75.8268C369.515 75.1488 369.885 73.4096 370.321 73.0773C372.332 73.0528 372.691 72.9379 374.779 72.6576C374.574 72.4912 374.484 72.1586 374.585 71.4808C375.213 71.5579 375.368 72.0312 375.93 71.085C374.38 71.2633 374.928 68.2196 375.644 66.7875C379.386 67.0836 384.265 65.4107 387.264 66.3332C387.725 65.4765 388.095 64.364 388.71 63.9806C392.386 62.7803 396.204 63.5369 400.123 62.3623C396.111 60.301 391.411 61.9612 386.249 63.2119C386.108 62.8537 386.402 61.7668 385.877 62.0351C383.584 63.2745 381.124 63.1325 379.408 63.6304C378.894 61.993 378.418 60.2917 377.968 58.5521C372.499 60.3014 369.598 53.6235 364.55 53.9278C364.741 52.7385 364.395 52.4058 364.356 51.5872C364.893 50.5899 365.34 49.3111 365.916 48.4417C366.749 48.3143 367.683 47.6241 368.299 48.4302C373.023 44.6724 378.726 46.7858 384.284 44.4354C385.192 42.4406 384.896 40.9824 384.677 39.3452C382.28 38.3719 379.579 41.2482 377.22 38.996C376.882 34.4426 378.34 31.1564 380.453 30.761C383.963 30.1234 389.857 30.2032 392.01 30.7031C402.512 27.3449 412.416 27.849 423.085 25.0664C417.435 24.539 411.762 27.3242 406.828 25.9275C406.727 26.7844 406.496 27.168 406.099 27.1038C401.077 26.9477 395.44 27.354 390.765 29.1421C389.277 26.4299 385.219 29.9705 383.717 27.2199C384.789 22.744 386.619 20.6219 388.732 19.3696C386.708 19.7522 385.041 18.3956 383.401 18.2285C382.056 18.0871 379.508 19.5694 378.943 18.6482C378.802 18.4179 379.25 17.4973 378.942 17.4715C379.493 17.5102 377.905 17.7779 377.777 17.8674C376.957 18.4297 377.047 18.7495 376.189 18.6595C375.074 18.5438 375.112 18.4799 374.535 17.4948C370.704 17.0323 366.708 18.6417 362.928 17.9491C362.531 17.8849 361.698 17.9996 361.647 17.9612C361.313 17.7052 361.735 16.9125 361.274 16.7971C361.005 16.7331 361.006 17.6539 360.609 17.577C359.135 17.3076 357.444 17.0253 355.894 17.2164C352.038 17.7004 347.668 16.8923 344.517 17.2743C343.863 17.031 344.964 15.6375 344.016 15.7137C338.775 15.0842 333.202 14.6848 327.5 14.6306C327.09 14.5153 327.665 12.7762 326.999 13.07C326.243 12.8266 326.181 14.7195 325.489 14.6424C325.117 14.1562 324.783 13.5932 324.68 12.6851C318.286 11.6457 311.28 13.6628 304.401 14.7464C297.983 15.7534 291.642 16.1081 285.583 16.8084C280.804 17.3558 276.053 19.2974 271.965 18.4383C266.099 20.1107 261.192 20.3255 255.85 20.8727C251.994 21.2543 247.894 20.6127 244.551 21.7109C243.975 21.9024 243.194 22.8484 242.541 22.8993C241.567 22.9755 240.759 21.6961 239.785 21.7467C237.146 21.8604 234.227 23.6623 231.613 23.7504C228.667 23.8512 225.874 23.7602 222.991 23.797C221.364 23.8217 219.623 25.1893 217.983 25.3803C216.894 25.5204 215.92 24.5223 214.805 24.6113C211.667 24.8654 208.261 26.7821 205.352 26.6143C201.47 26.3948 197.638 24.9347 193.374 27.0684C189.094 26.2988 183.713 26.5773 179.384 27.5342C176.37 24.6294 172.351 28.0677 168.558 27.5925C168.161 27.5411 167.968 26.9527 167.571 26.8118C161.996 24.852 154.89 29.4398 150.404 27.6852C148.33 29.8456 147.111 27.6835 145.509 27.3245C143.779 26.9271 141.936 28.3842 140.194 28.524C139.63 28.5748 139.219 27.82 138.656 27.7558C136.951 27.563 135.069 28.9689 133.11 29.3388C130.176 29.9 127.585 26.714 124 29.0015C121.654 27.6957 118.104 26.2485 114.942 28.2677C110.417 25.6306 104.975 29.3623 100.093 28.3494C98.4398 28.0032 97.1696 26.0201 95.1985 27.9887C94.711 27.3489 94.147 27.0544 93.5319 26.939C91.8661 26.644 90.0088 27.0523 89.2531 27.2309C81.6063 29.0942 77.5055 27.9921 72.4983 30.2789C67.0172 32.7828 65.8424 36.8877 64.9327 36.7721C64.6636 36.7336 64.6632 36.3627 64.7141 36.0046C66.6699 31.2734 66.733 30.2886 66.4255 30.2501C65.4774 30.1601 60.4891 39.008 59.0541 38.9049C58.2341 38.8406 58.9232 35.912 59.6127 33.4823C58.8069 34.9016 58.2311 35.6175 57.8979 35.6045C57.4367 35.5915 57.4354 34.1718 57.8939 31.3327C56.8678 30.066 55.6259 30.9478 54.3455 31.7401C53.0764 30.9337 52.637 26.9686 50.8179 27.0444ZM370.541 89.8961C370.439 90.3565 370.478 90.5995 370.606 90.6763C369.955 92.5817 369.465 89.8955 370.541 89.8961ZM371.028 89.1162C372.59 88.8612 374.984 86.9568 375.908 88.313C376.203 88.3003 375.944 86.1004 376.495 85.5763C377.021 86.5102 377.701 87.1884 378.828 87.1251C378.46 90.3607 376.472 88.5691 375.988 91.4465C375.155 91.2287 374.758 91.1134 374.157 92.6222C372.529 91.6494 371.865 93.6698 370.672 92.6332C371.285 90.7534 370.632 91.2263 371.028 89.1162Z" fill="url(#paint29_linear_0_1)"/>
</g>
<path d="M62.6445 63.0508H73.2969V109H83.5977V63.0508H94.25V55H62.6445V63.0508ZM124.836 77.957H113.551V55H103.25V109H113.551V86.043H124.836V109H135.137V55H124.836V77.957ZM170.434 55H145.578V109H170.434V100.949H155.879V86.043H168.113V77.957H155.879V63.0508H170.434V55ZM208.93 55V109H235.859L240.676 104.184V59.8164L235.859 55H208.93ZM227.949 100.949H219.23V63.0508H227.949L230.445 65.582V98.418L227.949 100.949ZM269.891 98.418L267.395 100.949H264.195L261.77 98.418V88.7852H251.469V104.184L256.285 109H275.305L280.121 104.184V55H269.891V98.418Z" fill="white"/>
<defs>
<linearGradient id="paint0_linear_0_1" x1="349.47" y1="8.80481" x2="350.69" y2="8.80675" gradientUnits="userSpaceOnUse">
<stop stop-color="#DD5AFE"/>
<stop offset="1" stop-color="#6366F1"/>
</linearGradient>
<linearGradient id="paint1_linear_0_1" x1="351.552" y1="116.642" x2="352.856" y2="116.645" gradientUnits="userSpaceOnUse">
<stop stop-color="#DD5AFE"/>
<stop offset="1" stop-color="#6366F1"/>
</linearGradient>
<linearGradient id="paint2_linear_0_1" x1="353.039" y1="119.241" x2="354.387" y2="119.245" gradientUnits="userSpaceOnUse">
<stop stop-color="#DD5AFE"/>
<stop offset="1" stop-color="#6366F1"/>
</linearGradient>
<linearGradient id="paint3_linear_0_1" x1="360.499" y1="102.057" x2="361.847" y2="102.061" gradientUnits="userSpaceOnUse">
<stop stop-color="#DD5AFE"/>
<stop offset="1" stop-color="#6366F1"/>
</linearGradient>
<linearGradient id="paint4_linear_0_1" x1="360.493" y1="118.798" x2="362.881" y2="118.806" gradientUnits="userSpaceOnUse">
<stop stop-color="#DD5AFE"/>
<stop offset="1" stop-color="#6366F1"/>
</linearGradient>
<linearGradient id="paint5_linear_0_1" x1="378.606" y1="33.2655" x2="382.83" y2="33.299" gradientUnits="userSpaceOnUse">
<stop stop-color="#DD5AFE"/>
<stop offset="1" stop-color="#6366F1"/>
</linearGradient>
<linearGradient id="paint6_linear_0_1" x1="376.533" y1="69.7653" x2="382.465" y2="69.7989" gradientUnits="userSpaceOnUse">
<stop stop-color="#DD5AFE"/>
<stop offset="1" stop-color="#6366F1"/>
</linearGradient>
<linearGradient id="paint7_linear_0_1" x1="393.071" y1="74.3889" x2="393.909" y2="74.3893" gradientUnits="userSpaceOnUse">
<stop stop-color="#DD5AFE"/>
<stop offset="1" stop-color="#6366F1"/>
</linearGradient>
<linearGradient id="paint8_linear_0_1" x1="402.082" y1="60.5375" x2="409.676" y2="60.6089" gradientUnits="userSpaceOnUse">
<stop stop-color="#DD5AFE"/>
<stop offset="1" stop-color="#6366F1"/>
</linearGradient>
<linearGradient id="paint9_linear_0_1" x1="400.259" y1="81.0077" x2="401.659" y2="81.0111" gradientUnits="userSpaceOnUse">
<stop stop-color="#DD5AFE"/>
<stop offset="1" stop-color="#6366F1"/>
</linearGradient>
<linearGradient id="paint10_linear_0_1" x1="409.011" y1="29.9573" x2="410.719" y2="29.9639" gradientUnits="userSpaceOnUse">
<stop stop-color="#DD5AFE"/>
<stop offset="1" stop-color="#6366F1"/>
</linearGradient>
<linearGradient id="paint11_linear_0_1" x1="402.536" y1="73.5438" x2="404.828" y2="73.5495" gradientUnits="userSpaceOnUse">
<stop stop-color="#DD5AFE"/>
<stop offset="1" stop-color="#6366F1"/>
</linearGradient>
<linearGradient id="paint12_linear_0_1" x1="402.641" y1="79.4235" x2="405.029" y2="79.4324" gradientUnits="userSpaceOnUse">
<stop stop-color="#DD5AFE"/>
<stop offset="1" stop-color="#6366F1"/>
</linearGradient>
<linearGradient id="paint13_linear_0_1" x1="412.068" y1="19.411" x2="413.596" y2="19.4132" gradientUnits="userSpaceOnUse">
<stop stop-color="#DD5AFE"/>
<stop offset="1" stop-color="#6366F1"/>
</linearGradient>
<linearGradient id="paint14_linear_0_1" x1="411.585" y1="29.496" x2="415.373" y2="29.5254" gradientUnits="userSpaceOnUse">
<stop stop-color="#DD5AFE"/>
<stop offset="1" stop-color="#6366F1"/>
</linearGradient>
<linearGradient id="paint15_linear_0_1" x1="405.381" y1="78.4435" x2="408.565" y2="78.4642" gradientUnits="userSpaceOnUse">
<stop stop-color="#DD5AFE"/>
<stop offset="1" stop-color="#6366F1"/>
</linearGradient>
<linearGradient id="paint16_linear_0_1" x1="410.33" y1="59.7865" x2="411.974" y2="59.7903" gradientUnits="userSpaceOnUse">
<stop stop-color="#DD5AFE"/>
<stop offset="1" stop-color="#6366F1"/>
</linearGradient>
<linearGradient id="paint17_linear_0_1" x1="411.395" y1="64.257" x2="412.923" y2="64.2633" gradientUnits="userSpaceOnUse">
<stop stop-color="#DD5AFE"/>
<stop offset="1" stop-color="#6366F1"/>
</linearGradient>
<linearGradient id="paint18_linear_0_1" x1="412.345" y1="68.7876" x2="413.656" y2="68.789" gradientUnits="userSpaceOnUse">
<stop stop-color="#DD5AFE"/>
<stop offset="1" stop-color="#6366F1"/>
</linearGradient>
<linearGradient id="paint19_linear_0_1" x1="418.971" y1="39.2412" x2="420.328" y2="39.2458" gradientUnits="userSpaceOnUse">
<stop stop-color="#DD5AFE"/>
<stop offset="1" stop-color="#6366F1"/>
</linearGradient>
<linearGradient id="paint20_linear_0_1" x1="424.315" y1="24.2195" x2="426.767" y2="24.2348" gradientUnits="userSpaceOnUse">
<stop stop-color="#DD5AFE"/>
<stop offset="1" stop-color="#6366F1"/>
</linearGradient>
<linearGradient id="paint21_linear_0_1" x1="425.205" y1="21.5758" x2="426.224" y2="21.5776" gradientUnits="userSpaceOnUse">
<stop stop-color="#DD5AFE"/>
<stop offset="1" stop-color="#6366F1"/>
</linearGradient>
<linearGradient id="paint22_linear_0_1" x1="429.774" y1="0.807373" x2="431.174" y2="0.810378" gradientUnits="userSpaceOnUse">
<stop stop-color="#DD5AFE"/>
<stop offset="1" stop-color="#6366F1"/>
</linearGradient>
<linearGradient id="paint23_linear_0_1" x1="434.68" y1="2.37268" x2="436.132" y2="2.37706" gradientUnits="userSpaceOnUse">
<stop stop-color="#DD5AFE"/>
<stop offset="1" stop-color="#6366F1"/>
</linearGradient>
<linearGradient id="paint24_linear_0_1" x1="393.195" y1="3.46326" x2="396.623" y2="3.47733" gradientUnits="userSpaceOnUse">
<stop stop-color="#DD5AFE"/>
<stop offset="1" stop-color="#6366F1"/>
</linearGradient>
<linearGradient id="paint25_linear_0_1" x1="407.373" y1="37.4514" x2="416.066" y2="37.4854" gradientUnits="userSpaceOnUse">
<stop stop-color="#DD5AFE"/>
<stop offset="1" stop-color="#6366F1"/>
</linearGradient>
<linearGradient id="paint26_linear_0_1" x1="405.492" y1="73.462" x2="407.112" y2="73.4658" gradientUnits="userSpaceOnUse">
<stop stop-color="#DD5AFE"/>
<stop offset="1" stop-color="#6366F1"/>
</linearGradient>
<linearGradient id="paint27_linear_0_1" x1="407.283" y1="69.1504" x2="423.999" y2="69.2653" gradientUnits="userSpaceOnUse">
<stop stop-color="#DD5AFE"/>
<stop offset="1" stop-color="#6366F1"/>
</linearGradient>
<linearGradient id="paint28_linear_0_1" x1="426.054" y1="17.7714" x2="427.402" y2="17.7726" gradientUnits="userSpaceOnUse">
<stop stop-color="#DD5AFE"/>
<stop offset="1" stop-color="#6366F1"/>
</linearGradient>
<linearGradient id="paint29_linear_0_1" x1="0.87677" y1="12.2274" x2="424" y2="14.3728" gradientUnits="userSpaceOnUse">
<stop stop-color="#DD5AFE"/>
<stop offset="1" stop-color="#6366F1"/>
</linearGradient>
<clipPath id="clip0_0_1">
<rect width="437" height="169" fill="white"/>
</clipPath>
</defs>
</svg>
